<?xml version="1.0" encoding="utf-8"?>
<svg x="-3px" y="24px" width="215px" height="79px" viewBox="-3 24 215 79" xmlns="http://www.w3.org/2000/svg" xmlns:xlink="http://www.w3.org/1999/xlink">
  <!--Generated by AMDN-->
  <g id="Layer 1">
    <path id="Path" style="fill:#000000;fill-opacity:1;fill-rule:evenodd;opacity:1;stroke:none;" d="M29.0909,28 C29.0909,28,41.4545,28,41.4545,28 C41.4545,28,41.4545,69.8182,41.4545,69.8182 C41.4545,69.8182,29.0909,69.8182,29.0909,69.8182 C29.0909,69.8182,29.0909,28,29.0909,28 z"/>
    <path id="Path" style="fill:#000000;fill-opacity:1;fill-rule:evenodd;opacity:1;stroke:none;" d="M29.0909,75.2727 C29.0909,75.2727,41.4545,75.2727,41.4545,75.2727 C41.4545,75.2727,41.4545,93.0909,41.4545,93.0909 C41.4545,93.0909,29.0909,93.0909,29.0909,93.0909 C29.0909,93.0909,29.0909,75.2727,29.0909,75.2727 z"/>
    <path id="Path" style="fill:#000000;fill-opacity:1;fill-rule:evenodd;opacity:1;stroke:none;" d="M41.4545,58.1818 C41.4545,58.1818,41.4545,70.5455,41.4545,70.5455 C41.4545,70.5455,0.363637,70.5455,0.363637,70.5455 C0.363637,70.5455,0.363638,58.1818,0.363638,58.1818 C0.363638,58.1818,41.4545,58.1818,41.4545,58.1818 z"/>
    <path id="Path" style="fill:#000000;fill-opacity:1;fill-rule:evenodd;opacity:1;stroke:none;" d="M9.4369e-16,28 C9.4369e-16,28,12.3636,28,12.3636,28 C12.3636,28,12.3636,100,12.3636,100 C12.3636,100,9.4369e-16,100,9.4369e-16,100 C9.4369e-16,100,9.4369e-16,28,9.4369e-16,28 z"/>
    <path id="Path" style="fill:#000000;fill-opacity:1;fill-rule:evenodd;opacity:1;stroke:none;" d="M58.9091,28 C58.9091,28,71.2727,28,71.2727,28 C71.2727,28,71.2727,100,71.2727,100 C71.2727,100,58.9091,100,58.9091,100 C58.9091,100,58.9091,28,58.9091,28 z"/>
    <path id="Path" style="fill:#000000;fill-opacity:1;fill-rule:evenodd;opacity:1;stroke:none;" d="M71.2727,28 C71.2727,28,71.2727,40.3636,71.2727,40.3636 C71.2727,40.3636,6.57211e-07,40.3636,6.57211e-07,40.3636 C6.57211e-07,40.3636,1.19764e-06,28,1.19764e-06,28 C1.19764e-06,28,71.2727,28,71.2727,28 z"/>
    <path id="Path" style="fill:#000000;fill-opacity:1;fill-rule:evenodd;opacity:1;stroke:none;" d="M71.2727,87.6364 C71.2727,87.6364,71.2727,100,71.2727,100 C71.2727,100,6.57211e-07,100,6.57211e-07,100 C6.57211e-07,100,1.19764e-06,87.6364,1.19764e-06,87.6364 C1.19764e-06,87.6364,71.2727,87.6364,71.2727,87.6364 z"/>
    <g id="Text">
      <g id="Text">
        <path style="fill:#000000;fill-opacity:1;fill-rule:nonzero;opacity:1;stroke:none;" d="M91,38.2672 C91,38.2672,103.453,38.2672,103.453,38.2672 C103.453,38.2672,103.453,91.6127,103.453,91.6127 C103.453,91.6127,91,91.6127,91,91.6127 C91,91.6127,91,38.2672,91,38.2672 z"/>
      </g>
      <g id="Text">
        <path style="fill:#000000;fill-opacity:1;fill-rule:nonzero;opacity:1;stroke:none;" d="M134.424,69.5779 C134.424,69.5779,131.494,69.5779,131.494,69.5779 C131.494,69.5779,131.494,91.616,131.494,91.616 C131.494,91.616,119.041,91.616,119.041,91.616 C119.041,91.616,119.041,38.2679,119.041,38.2679 C119.041,38.2679,131.494,38.2679,131.494,38.2679 C131.494,38.2679,131.494,61.0608,131.494,61.0608 C131.494,61.0608,134.005,59.5703,134.005,59.5703 C134.005,59.5703,142.691,38.384,142.691,38.384 C142.691,38.384,156.19,38.384,156.19,38.384 C156.19,38.384,146.563,59.4639,146.563,59.4639 C146.563,59.4639,142.063,63.0837,142.063,63.0837 C142.063,63.0837,146.981,66.7034,146.981,66.7034 C146.981,66.7034,157.655,91.616,157.655,91.616 C157.655,91.616,143.633,91.616,143.633,91.616 C143.633,91.616,134.424,69.5779,134.424,69.5779 z"/>
      </g>
      <g id="Text">
        <path style="fill:#000000;fill-opacity:1;fill-rule:nonzero;opacity:1;stroke:none;" d="M159.224,65 C159.224,55.5602,161.038,48.5336,164.666,43.9202 C168.294,39.3067,173.351,37,179.839,37 C186.815,37,192.013,39.3422,195.431,44.0266 C198.849,48.711,200.559,55.7022,200.559,65 C200.559,74.5108,198.745,81.5551,195.117,86.1331 C191.49,90.711,186.397,93,179.839,93 C166.096,93,159.224,83.6667,159.224,65 z M172.096,65 C172.096,70.3232,172.689,74.4398,173.875,77.3498 C175.061,80.2598,177.049,81.7148,179.839,81.7148 C182.49,81.7148,184.461,80.455,185.752,77.9354 C187.042,75.4157,187.687,71.1039,187.687,65 C187.687,59.5349,187.094,55.3828,185.909,52.5437 C184.723,49.7047,182.699,48.2852,179.839,48.2852 C177.398,48.2852,175.497,49.545,174.136,52.0646 C172.776,54.5843,172.096,58.8961,172.096,65 z"/>
      </g>
    </g>
  </g>
</svg>
